<svg xmlns="http://www.w3.org/2000/svg" viewBox="25 20.001 150 159.999" width="200" height="200" fill="#1C31F4">
  <path d="M172.145 180H27.855A2.847 2.847 0 0 1 25 177.158v-77.125c0-.572.174-1.132.499-1.604l23.148-33.675a2.859 2.859 0 0 1 2.356-1.238h97.995c.942 0 1.825.463 2.356 1.238l23.147 33.675a2.83 2.83 0 0 1 .499 1.604v77.125a2.847 2.847 0 0 1-2.855 2.842zM30.71 174.317h138.58v-73.403L147.492 69.2H52.509L30.71 100.913v73.404z"/>
  <path d="M172.145 102.875h-44.089c-.482 0-.956-.122-1.379-.352L100 87.887l-26.675 14.636c-.422.23-.896.352-1.379.352H27.855c-1.577 0-2.855-1.271-2.855-2.842s1.278-2.842 2.855-2.842h43.356l27.41-15.038a2.863 2.863 0 0 1 2.758 0l27.411 15.038h43.355c1.577 0 2.855 1.271 2.855 2.842s-1.278 2.842-2.855 2.842z"/>
  <path d="M118.87 180a2.847 2.847 0 0 1-2.855-2.842v-33.512c0-8.789-7.184-15.937-16.014-15.937-8.829 0-16.013 7.149-16.013 15.937v33.512c0 1.571-1.278 2.842-2.855 2.842s-2.855-1.271-2.855-2.842v-33.512c0-11.922 9.745-21.62 21.723-21.62 11.98 0 21.725 9.699 21.725 21.62v33.512A2.85 2.85 0 0 1 118.87 180z"/>
  <path d="M49.901 124.601h-6.98c-1.577 0-2.855-1.271-2.855-2.842s1.278-2.842 2.855-2.842h6.98c1.577 0 2.855 1.271 2.855 2.842s-1.279 2.842-2.855 2.842z"/>
  <path d="M157.081 124.601h-6.98c-1.577 0-2.855-1.271-2.855-2.842s1.278-2.842 2.855-2.842h6.98c1.577 0 2.855 1.271 2.855 2.842s-1.278 2.842-2.855 2.842z"/>
  <path d="M67.419 124.601h-6.982c-1.577 0-2.855-1.271-2.855-2.842s1.278-2.842 2.855-2.842h6.982c1.577 0 2.855 1.271 2.855 2.842s-1.278 2.842-2.855 2.842z"/>
  <path d="M139.564 124.601h-6.982c-1.577 0-2.855-1.271-2.855-2.842s1.278-2.842 2.855-2.842h6.982c1.577 0 2.855 1.271 2.855 2.842s-1.278 2.842-2.855 2.842z"/>
  <path d="M49.901 137.023h-6.98a2.847 2.847 0 0 1-2.855-2.842 2.847 2.847 0 0 1 2.855-2.842h6.98a2.847 2.847 0 0 1 2.855 2.842 2.848 2.848 0 0 1-2.855 2.842z"/>
  <path d="M157.081 137.023h-6.98a2.847 2.847 0 0 1-2.855-2.842 2.847 2.847 0 0 1 2.855-2.842h6.98a2.847 2.847 0 0 1 2.855 2.842 2.847 2.847 0 0 1-2.855 2.842z"/>
  <path d="M67.419 137.023h-6.982a2.847 2.847 0 0 1-2.855-2.842 2.847 2.847 0 0 1 2.855-2.842h6.982a2.847 2.847 0 0 1 2.855 2.842 2.847 2.847 0 0 1-2.855 2.842z"/>
  <path d="M139.564 137.023h-6.982a2.847 2.847 0 0 1-2.855-2.842 2.847 2.847 0 0 1 2.855-2.842h6.982a2.847 2.847 0 0 1 2.855 2.842 2.847 2.847 0 0 1-2.855 2.842z"/>
  <path d="M49.901 149.447h-6.98a2.847 2.847 0 0 1-2.855-2.842 2.847 2.847 0 0 1 2.855-2.842h6.98a2.847 2.847 0 0 1 2.855 2.842 2.848 2.848 0 0 1-2.855 2.842z"/>
  <path d="M157.081 149.447h-6.98a2.847 2.847 0 0 1-2.855-2.842 2.847 2.847 0 0 1 2.855-2.842h6.98a2.847 2.847 0 0 1 2.855 2.842 2.847 2.847 0 0 1-2.855 2.842z"/>
  <path d="M67.419 149.447h-6.982a2.847 2.847 0 0 1-2.855-2.842 2.847 2.847 0 0 1 2.855-2.842h6.982a2.847 2.847 0 0 1 2.855 2.842 2.847 2.847 0 0 1-2.855 2.842z"/>
  <path d="M139.564 149.447h-6.982a2.847 2.847 0 0 1-2.855-2.842 2.847 2.847 0 0 1 2.855-2.842h6.982a2.847 2.847 0 0 1 2.855 2.842 2.847 2.847 0 0 1-2.855 2.842z"/>
  <path d="M100 180a2.847 2.847 0 0 1-2.855-2.842v-52.291c0-1.571 1.278-2.842 2.855-2.842s2.855 1.271 2.855 2.842v52.291A2.847 2.847 0 0 1 100 180z"/>
  <path d="M100 87.485a2.847 2.847 0 0 1-2.855-2.842v-61.8a2.854 2.854 0 0 1 4.052-2.578l32.582 14.994a2.839 2.839 0 0 1 1.656 2.486 2.84 2.84 0 0 1-1.49 2.589l-29.406 15.907a2.896 2.896 0 0 1-1.684.327v28.075A2.847 2.847 0 0 1 100 87.485zm2.855-60.197v23.394l23.368-12.64-23.368-10.754z"/>
</svg>
