<svg xmlns="http://www.w3.org/2000/svg" viewBox="20 29.5 160.001 140.999" width="200" height="200" fill="#266040">
  <path d="M94.942 114.256H22.483a2.49 2.49 0 0 1-2.482-2.496V51.961a2.49 2.49 0 0 1 2.482-2.496h72.459a2.49 2.49 0 0 1 2.482 2.496v59.798a2.49 2.49 0 0 1-2.482 2.497zm-69.978-4.992H92.46V54.457H24.964v54.807z"/>
  <path d="M60.125 101.205c-10.606 0-19.235-8.678-19.235-19.344s8.629-19.344 19.235-19.344S79.36 71.194 79.36 81.86s-8.628 19.345-19.235 19.345zm0-33.697c-7.869 0-14.271 6.439-14.271 14.352s6.402 14.352 14.271 14.352 14.271-6.439 14.271-14.352-6.402-14.352-14.271-14.352z"/>
  <path d="M94.94 54.457c-.404 0-.813-.099-1.191-.307L58.713 34.842 23.675 54.15a2.475 2.475 0 0 1-3.369-.989 2.503 2.503 0 0 1 .984-3.388l36.231-19.965a2.466 2.466 0 0 1 2.385 0l36.229 19.965a2.503 2.503 0 0 1 .984 3.388 2.478 2.478 0 0 1-2.179 1.296z"/>
  <path d="M169.638 170.5h-7.764c-8.228 0-16.121-3.926-21.113-10.503l-25.008-37.312c-3.973-5.226-10.392-8.419-17.081-8.419h-5.358a2.49 2.49 0 0 1-2.482-2.496 2.49 2.49 0 0 1 2.482-2.496h5.358c8.226 0 16.12 3.926 21.113 10.503l25.009 37.312c3.973 5.228 10.39 8.419 17.081 8.419h7.764c2.976 0 5.398-2.436 5.398-5.429 0-2.994-2.422-5.429-5.398-5.429h-1.312c-7.334 0-14.368-3.5-18.818-9.362l-24.514-36.661c-4.825-6.349-12.59-10.214-20.686-10.214h-8.853a2.49 2.49 0 0 1-2.482-2.496 2.49 2.49 0 0 1 2.482-2.496h8.853c9.634 0 18.875 4.597 24.719 12.299l24.514 36.661c3.429 4.511 8.989 7.277 14.785 7.277h1.312c5.713 0 10.362 4.675 10.362 10.422-.001 5.745-4.65 10.42-10.363 10.42z"/>
  <path d="M33.858 170.219a2.49 2.49 0 0 1-2.482-2.496v-54.65c0-1.378 1.112-2.496 2.482-2.496s2.482 1.118 2.482 2.496v54.65a2.49 2.49 0 0 1-2.482 2.496z"/>
  <path d="M86.392 170.219a2.49 2.49 0 0 1-2.482-2.496v-54.65c0-1.378 1.112-2.496 2.482-2.496s2.482 1.118 2.482 2.496v54.65a2.49 2.49 0 0 1-2.482 2.496z"/>
  <path d="M86.392 128.702H35.099a2.49 2.49 0 0 1-2.482-2.496 2.49 2.49 0 0 1 2.482-2.496h51.293a2.49 2.49 0 0 1 2.482 2.496 2.49 2.49 0 0 1-2.482 2.496z"/>
  <path d="M86.392 143.147H35.099a2.49 2.49 0 0 1-2.482-2.496 2.49 2.49 0 0 1 2.482-2.496h51.293a2.49 2.49 0 0 1 2.482 2.496 2.49 2.49 0 0 1-2.482 2.496z"/>
  <path d="M86.392 157.594H35.099a2.49 2.49 0 0 1-2.482-2.496 2.49 2.49 0 0 1 2.482-2.496h51.293a2.49 2.49 0 0 1 2.482 2.496 2.49 2.49 0 0 1-2.482 2.496z"/>
</svg>
