<?xml version="1.0" encoding="UTF-8"?>
<svg data-bbox="-0.01 0 333.34 333.33" viewBox="0 0 333.33 333.33" xmlns="http://www.w3.org/2000/svg" data-type="ugc">
    <g>
        <path d="M0 180V0h333.33v159c-5.3-2.25-11.14-2.81-16.84-3.33-9.89-.9-19.76-1.63-29.65-2.68-4.28.62-10.96-.82-14.94.08-1.1.25-3.94 3.46-3.94 4.43 0 2.21 5.54 3.81 7.37 4.33 10.74 3.09 27.07 5.41 38.18 4.85 3.56-.18 7.13-1.11 10.66-1.34 3.04-.21 6.17.36 9.16-.34v168.33H0v-147c5.07 2.86 11.06.65 16.5 0 11.44-1.37 22.07-3.17 33.37-5.3 3.09-.58 5.89-.63 9.05-1.61 3.78-1.17 12.46-5 5.25-8.77-4.18-2.19-9.12.05-13.39.63-10.51 1.42-21.1 2.22-31.62 3.38-6.59.73-13.38 2.03-19.17 5.33ZM154.53 6.52c-.47.33-.81.53-1.12 1.06-3.13 5.34-1.81 12.65-2.06 18.61-.22 5.36-1.33 11.44-1.28 16.65.03 2.69.75 5.67.93 8.34.2 2.97-.28 5.64.36 8.64.84 4 3.26 11.69 8.76 8.47 3.64-2.13 3.63-7.1 3.56-10.8-.12-7.37-.56-14.93-.69-22.31-.15-8.05.76-15.34-1.48-23.18-.72-2.53-3.6-6.68-6.6-5.99-.26.06-.26.43-.38.51m43.79 58.13c.23-2.29 2.3-3.59 3.52-5.64 3.72-6.21 7.67-21.06 6.02-28.03-.87-3.68-4.37-5.29-7.63-3.26-2.38 1.48-4.88 7.87-5.72 10.61-1.82 5.89-3.95 17.69-1.67 23.33 1.02 2.51 2.78 3.43 5.48 2.98Zm55.54 9.54c5.46-6.06 9.24-12.68 14.15-18.69 3.26-3.99 7.34-6.01 7.99-12.01.2-1.81.47-6.15-1.43-6.93-.3-.12-3.66-.25-3.99-.17-2.33.58-11.37 8.38-13.59 10.42-10.2 9.41-13.1 16.61-20.19 27.81-1.37 2.17-5.15 6.51-5.88 8.45-.23.62-.5 2.41-.21 2.86.11.16.8.18 1.08.42 1.39 1.24 1.68 2.19 4 1.94 5.06-.55 14.58-10.25 18.06-14.12ZM101.24 42.08c-2.27.46-3.73 3.65-3.92 5.74-.4 4.45 1.87 10.35 3.45 14.57 1.29 3.43 5.93 15.18 7.89 17.45 3.22 3.73 11.23 2.48 11.98-2.36 1.03-6.61-5.26-18.39-8.04-24.59-2.32-5.19-3.53-12.41-11.36-10.82ZM36.47 62.8c-1.74 2.68-.26 5.16 1.27 7.64 2.44 3.98 6.86 8.21 10.44 11.22 8.7 7.31 18.39 14.06 27.58 20.75 1.36.93 5.34-.95 6.25-1.9 1.55-1.62 1.46-4.84.82-6.84-2.49-7.83-21.82-20.4-28.99-25.01-4.13-2.66-8.54-4.95-12.6-7.73-.89-.37-2.3-.45-3.17-.02-.11.06-1.47 1.68-1.61 1.89ZM97 101.67c-1.42-.52-2.51.54-3.32 1.51-7.56 8.99-14.88 19.17-18.32 30.68-.44 1.46-.45 3.32-.83 4.5-.47 1.43-1.09.75-1.19 3.31-.01.33-.01.67 0 1 0 .22-.03.45 0 .67-.46.4-.28.87-.33 1.33-.04.32.02.67 0 1-.02.38 0 .62 0 .67-.09.67-.29 1.43-.33 2-.03.42-.28 1.17-.33 2-.14 2.15-.09 4.83 0 7 .04 1.03.28 1.96.33 2.67s.26 1.32.33 2c0 .06-.03.54 0 1 .02.33-.04.67 0 1 .06.56-.18 1.17.33 1.67-.04.32.01.67 0 1-.02.59-.12 1.18.33 1.67-.03.33.01.67 0 1-.03.58.33.63.33.67v.67c-.01 1.32-.16 1.7 0 3.33.02.22-.03.45 0 .67.08.65-.24 1.42.33 2-.02.22.02.45 0 .67-.04.59-.11 1.19.33 1.67-.02.22 0 .45 0 .67-.01.36-.08.84.33 1-.03.21 0 .45 0 .67 0 .37-.09.84.33 1-.02.2-.02.47 0 .67.06.57.33.63.33.67.21.99.42 2.02.67 3 .12.46.32.63.33.67.05.19-.05.48 0 .67.42 1.48.89 2.96 1.42 4.41.21.56.43 2.1 1.25 1.92.23.7.43 1.58.67 2.33.4 1.24.35.39.67.67.07.06-.06.48 0 .67.2.67.11 1.54 1 1.33.05.19-.04.46 0 .67.21 1.22.36.42.67.67.22.17.52 2.01.67 2.33.1.22.32.31.33.33.24.56.44 1.13.67 1.67.41.96.93 3.31 2 3.33.26.59.3.73.67 1.33.23.37 0 1.1 1 1 .03.21-.04.46 0 .67.14.83 2.04 3.36 3 3.67.34 1.02.77 1.25 1.33 2 .51.68.63.62.67.67 2.26 2.68 3.75 4.04 6.33 6.33.56.49.64.9 1.67 1.67.57.43 1.07.93 1.67 1.33.42 1.37 2.28 2.04 3.33 2.67.34.2.65.48 1 .67-.16.89 1.01 1.04 1.67 1.33.09.04.24-.04.33 0 .12 1.09 1.68 1.75 2.67 2 .11.11.22.23.33.33.1.1.17.28.33.33.18.06.52-.07.67 0 .2 1.08 3.11 2.59 4 2.67.1 0 .23.02.33 0-.15.71.38.73.82 1 1.48.91 2.94 1.62 4.52 2.33.83.38 1.56.68 2.33 1-.18.81.41.69.88.94 1.6.85 4.31 2.05 6.12 2.06h.67c.62.77 1.82.32 2.33.33h1v.67c.44 0 .89.01 1.33 0 .33-.01.67.02 1 0 3.31.74 6.79 1.35 10.17 1.66 4.65.43 9.5.54 14.16.67h.67c.72.34 2.09.6 2.85.62.27 0 .44-.29.48-.28.66.01 1.34.04 2 0 2.38-.14 4.3-.33 6.83-.33h6.33c1.32 0 4.71-1.09 5.96-1.73.48-.24 1.05-.15.88-.94.44-.12.89-.22 1.33-.33 7.81-2.07 15.07-3.94 22.67-6.84.52-.2 1.19.1.99-.82.27-.08.74.08 1 0 3.37-1.03 6.9-2.81 10.01-4.49.63-.34 2.32-1.02 2.33-1.84.1-.02.22.02.33 0 1.18-.2.38-.18.67-.67.03-.05.23.04.33 0 .17-.06.58.08.67 0s-.07-.54 0-.67c.03-.05.24.05.33 0 .76-.38 1.98-.56 2-1.67.1-.03.22.03.33 0 1.24-.29.41-.37.67-.67.05-.06.26.05.33 0 .65-.46 1.67-.55 1.67-1.67.47-.32.88-.67 1.33-1 1.93-1.43 1.9-1.5 3.33-3.33.24-.31.42-.7.67-1 .11-.14.12.45.67-.67.09-.19.23-.57.33-.67.24-.23.47.58.67-.67.02-.1 0-.23 0-.33l2.16-2.69c.19-.31.19-.63.17-.98.13-.07.24-.3.33-.33.14-.05.43.09.62-.05.15-.15.01-.45.05-.62.02-.11-.03-.23 0-.33.96.21.74-.72 1-1.33.04-.1-.05-.29 0-.33.48-.4.07.38.67-.67.36-.63.67-1.43 1-2 .03-.06.11.35.67-.67.64-1.18.92-2.08 1.33-3.33 1 .15.54-.24.67-.67 1.36-4.44 2.44-9.8 4.33-14s2.55-4.42 3.33-9.5c.86-5.63 1.52-10.87 1.33-16.66-.11-3.43-.45-8.25-1.04-11.63-.42-2.4-1.35-2.8-1.96-4.54-4.16-11.9-6.74-28.43-14.68-38.49-4.11-5.21-13.1-14.85-18.35-18.65-19.58-14.13-53.93-15.87-77.09-12.49-13.11 1.91-17.97 5.59-28.77 11.89-6.64 3.87-13.84 7.17-19.77 12.06Zm160.17 8.82c2.77 3.36 7.25 3.73 11.25 3.1 5.2-.83 18.16-3.78 21.24-8.09 1.45-2.03 1.45-4.61.84-6.84-1.04-.91-2.69 0-3.71-.03-5.8-.12-9.83.4-15.53 1.46-4.09.76-20.03 3.19-14.09 10.4m-229.24 9.27c-2.33.26-4.8 1.64-5.92 3.73.98 4.29 2.95 6.19 7 7.67 6.07 2.22 26.23 7.28 32.16 7.1 7.82-.23 9.69-9.56 2.35-11.95-4.61-1.5-10.1-.68-14.93-1.41-6.21-.94-14.91-5.78-20.66-5.15Zm233.33 78.33c-2.47.3-6.2 1.95-5.53 5 .34 1.53 3.05 3.23 4.38 3.96 6.51 3.61 13.34 6.47 19.88 9.78 3.37 1.71 8.72 4.16 12.17 1.49 3.55-2.74.55-7.11-2.01-9.32-4.89-4.24-22.58-11.68-28.9-10.92Zm-219.07 25.1c-2.74 2.5-7.81 7.56-3.17 10.95s10.35-.39 14.29-2.68c7.15-4.16 13.79-9.25 21-13.33 2.53-3.15 2.13-8.71-2.49-9.45-7.35-1.18-24.14 9.51-29.62 14.51Zm193.56 8.56c-.77.74-1.44 4.92-1.44 6.08 0 5.51 7.28 11.87 10.5 15.86 5.89 7.3 10.52 16.79 16.54 24.13 2.02 2.46 6.64 6.84 9.42 8.24.57.29 1.26.57 1.92.46.96-.16 3.45-1.95 3.76-2.92 1.37-4.35-3.79-9.59-5.83-13.06s-3.56-7.6-5.8-11.2c-2.81-4.5-7.68-11.14-11-15.33-2.39-3.02-5.34-5.03-8.14-7.52-1.06-.94-4.19-4.63-5-5s-4.3-.34-4.91.25Zm-140.17 4.33c-3.06.53-14.77 8.81-17.42 11.25-8.23 7.58-16.3 15.5-24.49 23.18-3.38 3.17-11.87 8.34-7.85 13.84 4.47 6.1 10.14 1.47 14.61-1.74 12.67-9.1 22.32-19.91 32.89-31.11 2.51-2.66 6.09-4.96 7.81-8.19 1.17-2.19 1.56-3.49.02-5.62-1.33-1.84-3.48-1.96-5.58-1.6Zm110 9.67c-7.34 1.27-5.74 10.12-4.48 15.32 1.4 5.79 3.92 13.41 5.9 19.1.92 2.64 3.05 8.19 4.99 10.01 2.49 2.34 6.04 2.72 8.35 0 1.54-1.82.8-6.43.3-8.65-1.64-7.35-4.95-14.77-6.81-22.19-.69-2.74-.93-5.72-1.6-8.4-.91-3.66-2.46-5.91-6.66-5.19Zm-86.47 51.47c.24.31 2.13 2.11 2.4 2.13 2.14-1.01 4.1-1.12 5.99-2.68 3.62-2.97 4.62-9.42 6.24-13.76 2.32-6.21 5.86-13.09 6.26-19.74.51-8.3-3.37-12.78-9.85-5.52-5.4 6.06-10.08 16.39-11.67 24.33-.9 4.45-2.28 11.45.63 15.23Zm49.47-41.47c-3.19.83-3.82 6.76-4.2 9.46-1.88 13.21-.87 23.6-.7 36.61.08 5.9-1.08 12.52.48 18.19.75 2.72 2.86 4.4 4.15 6.85 2.24 1.93 6.71-2.67 7-4.72.85-6.03.46-13.18.68-19.32.43-11.85 1.47-24.11-.03-35.94-.46-3.63-2.11-12.5-7.38-11.13" fill="#fefefd"/>
        <path d="M0 186.33V180c5.79-3.3 12.58-4.6 19.17-5.33 10.52-1.16 21.11-1.96 31.62-3.38 4.27-.58 9.21-2.82 13.39-.63 7.21 3.77-1.47 7.6-5.25 8.77-3.17.98-5.96 1.03-9.05 1.61-11.3 2.12-21.93 3.93-33.37 5.3-5.44.65-11.43 2.86-16.5 0Z" fill="#f69622"/>
        <path d="M333.33 159v6c-2.99.69-6.12.13-9.16.34-3.52.24-7.1 1.16-10.66 1.34-11.11.56-27.44-1.76-38.18-4.85-1.83-.53-7.37-2.12-7.37-4.33 0-.97 2.84-4.18 3.94-4.43 3.98-.9 10.66.54 14.94-.08 9.89 1.06 19.76 1.78 29.65 2.68 5.7.52 11.54 1.08 16.84 3.33m-42.66 2.33-8-1c-.15.9.16.58.73.76 2.35.75 4.85.85 7.27 1.24z" fill="#f69623"/>
        <path d="M255.67 147.33c-10.06-2.7-25.8 2.92-29.92 12.91-3.27 7.93-1.11 16.05 3.78 22.73.91 1.24 7.5 4.71 9.25 5.42 4.53 1.84 10.6 3.33 15.23 1.27-1.89 4.2-2.98 9.56-4.33 14-1.01-.16-.53.25-.67.67-.41 1.25-.69 2.15-1.33 3.33-.68-.09-.76-.02-.67.67-.33.57-.64 1.37-1 2h-.67v.67c-.05.04.04.23 0 .33-.87-.2-.83.65-1 1.33-.03.1.02.23 0 .33h-.67v.67c-.09.03-.21.26-.33.33-.05-1.08-.53-2.42-.36-3.86.08-.7.81-.33.71-.97-.13-.78-1.01-.9-1.04-1.99-.02-.65.44-1.45.37-2.17h1.32c.26-2.16-.08-2.96-2.33-3.01.7 1.46-.13 2.5-.3 3.87-.11.87.07 1.76-.06 2.6s-.88 1.97-.91 2.42c-.04.66 2.71 3.69-.73 2.77.47 1.49-.71 1.33-1 1.84-.37.63 1.61.75 1.93 1.25.19.29.05.61.07.92 0 .1.02.23 0 .33-.64-.11-.77.03-.67.67-.1.1-.24.48-.33.67-.63-.12-.77.04-.67.67-.25.3-.42.69-.67 1-1.31.5-2.85 2.04-3.33 3.33-.45.33-.86.68-1.33 1-.61.41-1.65.43-1.67 1.67-.07.05-.29-.06-.33 0h-.67v.67c-.11.03-.24-.03-.33 0-.82.27-1.95.66-2 1.67-.09.05-.3-.05-.33 0h-.67v.67c-.1.04-.3-.05-.33 0h-.67v.67c-.11.02-.23-.02-.33 0-2.56.64-8.43 4.08-11.42 5.43-.5.22-1.09.05-.91.91-.26.08-.73-.08-1 0-.89.26-5.69 1.92-6 1.66.78-2.21-2.19-1.62-1 .67-2.14.24-3.94 1.61-5.99 2.18-3.42.94-6.11.96-9.68 2.34-.52.2-1.19-.1-.99.82-.44.12-.89.21-1.33.33-1.65.45-5 2-6.5 2h-7c-.23 0-.77-.35-1.61-.31-1.28.06-3.69.72-4.89 1.31-.66.04-1.34.01-2 0-.52-.43-1.54-.66-2.19-.68-.85-.03-1.08.35-1.14.35h-.67c.19-1.08-.54-.56-1.16-.65-2.97-.46-5.45-.15-8.33-.35-4.92-.34-10.04-1.56-14.84-1.33-.33.02-.67-.01-1 0v-.67c-.44-.02-.89.01-1.33 0h-1c-.77-1.1-1.99-.32-2.33-.33h-.67c.2-1-.51-.58-1.06-.75-2-.64-4-1.45-5.94-2.25-.77-.32-1.51-.62-2.33-1 .25-1.04-.98-.67-1.27-1.09-.4-.58.53-1.22-1.73-.91l-.51-2c-.57-.15-1.15.57-1.82.67-.1.02-.23 0-.33 0 .19-.83-.45-.67-.88-.94-1.16-.73-1.84-1.16-3.12-1.73-.15-.07-.49.06-.67 0l-.33-.33-.33-.33c-1.18-1.17-.81-1.12-2.67-2-.09-.04-.24.04-.33 0 .04-1.19-1.06-1.01-1.67-1.33-.35-.19-.66-.46-1-.67-.24-1.46-2.44-2.06-3.33-2.67-.6-.41-1.1-.91-1.67-1.33l-.34-3-1.33 1.33c-2.58-2.3-4.08-3.65-6.33-6.33.11-.63-.03-.78-.67-.67-.57-.75-1-.98-1.33-2-.4-1.21-.7-3.07 1-3.33-.65 1.59 2.37 1.33 1.93-.09-.28-.91-.96-.65.07-2.06-.2-1.15-2.96-.06-3.52.48-.76.71-.3 2.23-2.48 1.35-.04-.21.03-.45 0-.67-.04-.32.04-.67 0-1h-1c-.37-.6-.4-.75-.67-1.33-.43-.95-.91-3.31-2-3.33-.23-.54-.43-1.11-.67-1.67l-.33-.33c-.14-.32-.45-2.16-.67-2.33.1-.68.02-.76-.67-.67-.04-.21.05-.48 0-.67-.17-.68-.14-1.54-1-1.33-.06-.19.07-.61 0-.67v-.67h-.67c-.24-.75-.44-1.64-.67-2.33-.59-1.79-1.22-3.57-1.84-5.34-.19-.53.07-1.18-.83-.99-.05-.19.05-.48 0-.67l.33-.66h-.66c-.24-.98-.45-2.02-.67-3l.33-.66h-.66c-.02-.2-.02-.47 0-.67.04-.34 1.01-1.16-.33-1 0-.22-.03-.46 0-.67.05-.35 1.01-1.15-.33-1 0-.22-.02-.45 0-.67 0-.09.66-1.06.33-1.67h-.67c.02-.22-.02-.45 0-.66s.67-1.3.33-2h-.67c-.03-.21.02-.45 0-.66.35-.53.3-.81 1.07-.6.55.15 3.44 1.37 3.59 1.26l.35-1.48c-1.49-.65-3.04-1.02-4.68-.85l-.33-1.67v-.67l.33-.66h-.66c.01-.33-.03-.67 0-1 0-.09.66-1.05.33-1.67h-.67c.01-.33-.04-.67 0-1 .01-.1.66-1.05.33-1.67h-.67c-.04-.32.02-.67 0-1 .52-.11.37-.76 0-1-.08-.68-.29-1.32-.33-2 .66-.57.24-1.83.33-2.67h-.67c-.09-2.17-.14-4.85 0-7h.67c-.05-.63.26-1.63-.33-2 .05-.57.25-1.33.33-2l.28-.46-.28-.21c.02-.33-.04-.68 0-1h.67c.32-.6-.32-1.27-.33-1.33-.03-.21 0-.45 0-.67h.67v-.67c2.12.32.83.27 2 1.16.78.59 5.59 1.4 6.84 1.5 3.86.3 7.92-.17 11.62-.35 1.53-.07 4.47-1.38 5.71-2.32 2.36-1.79 8.1-11.44 8.83-14.33 2.33.34 3-2.65.33-2.33.21-3.55-1.5-11.81-3.16-15.01-1.98-3.82-3.33-3.98-6.49-6.18-.51-.35-2.51-2.42-2.69-2.48 5.93-4.9 13.13-8.19 19.77-12.06 10.81-6.3 15.66-9.98 28.77-11.89 23.16-3.38 57.52-1.64 77.09 12.49 5.25 3.79 14.24 13.43 18.35 18.65 7.94 10.06 10.52 26.6 14.68 38.49ZM152.67 82c.78.03 3.09.33 2.66-1.16-.4-1.39-3.19.7-2.66 1.16m79 22.33-1.52.31c-.61 1.43.22 1.65 1.52 1.69zm-77.55 3.21a1.071 1.071 0 0 0-2.14 0 1.071 1.071 0 0 0 2.14 0m61.88 3.13c-1.06-.07-1.72.78-2.83.7-.52-.04-4.51-1.88-3.83.46.25.86 7.72 2 6.66-1.16m-78.8 2.02c-.3.05-.87.89-1.73.97-.71.07-4.82-1.79-4.13.5.22.72 6.05 1.88 6.61-.06.18-.61 0-1.53-.75-1.41m1.72 6.05c-7.03 1.11-6.83 15.83 2.52 12.19 6.51-2.53 4.07-13.23-2.52-12.19m13.08 1.92c.7.2 2.48-.75 2.33-1.49-.26-1.33-2.83.3-2.33 1.49m16.67-.66c1.37-.24 2.15.26 3.22.96 2.97-2.09-.26-1.22-1.02-1.36-.54-.1-2.01-2.39-2.2.41Zm58.66 13.33c-.12-1.78-3.81-1.85-3.33 0zM232 132c-.69-.72-4.67.95-3.67 2 .64.67 1.25-.86 1.54-.95.64-.2 1.45.01 2.13-.05zm-22.74 1.42c-7.22.9-7.89 13.03.88 11.89 7.68-1 7.33-12.91-.88-11.89m-19.93 24.25c-.36-.36-5.98.72-7.12.65-2.51-.17-4.55-1.87-6.68-2.96-1.67 2.65-3.73 2.47-6.28 3.06-1.55.36-3.03 1.65-4.9.4-.67-.45-.96-3.96-1.01-4.99-.2-4.2 1.66-9.43-2.04-12.63-.54-.47-3.65-1.91-4.29-2.05-1.58-.34-4.97 1.11-6.18 2.18-.81.72-2.22 3.85-2.42 4.92-.31 1.64-.57 9.8-.41 11.59.23 2.52 1.63 5.8 2.79 7.87.84 1.5 1.7 3.88 3.22 4.78.39.23 4.68 1.67 5.23 1.77 1.91.36 4.27-.11 6.25.08 2.59.24 4.89 1.48 7.68 1.34 8.97-.44 15.59-7.14 16.16-16.01m-4.33-17c-2.11-.56-2.68 1.49-1.16 2.66zm14.64 12.32c.12-.55.68-1.39.02-1.83-1.48.36-2-.21-3.33-.49-.58 1.26 2.84 2.65 3.31 2.32m7.69 18.01c-.47 0-.88-.07-1.32.16-1.26.66-3.54 8.15-4.39 9.95-3.72 7.95-11.4 12.01-19.62 14.05-7.45 1.85-20.52 3.26-28.08 2.41-11.01-1.24-27.15-15.54-28.22-26.78-.42-4.36.69-10.7-.05-14.62-.4-2.13-2.8-2.09-3.56.42-1.08 3.55.08 6.45.26 9.9.13 2.5.2 3.76.8 6.52.18.83 1.08 5.33 1.24 5.57 5.1 7.84 15.2 17.94 24.35 20.83 10.56 3.34 38.43 0 47.26-7.25 5.26-4.31 9.21-14 12.66-19.84.27.28 1.23.41 1.5 1 .3.64-.03 1.84.47 2.19 2.25.98 1.78-1.99.86-2.86-.32-.3-.92-.22-1.09-.42-.43-.48.43-1.3-2.07-.91-.02-.1.01-.22 0-.33-.02-.22.03-.45 0-.67h-.83l-.17.67Zm-5.66-14.66-2.33-.33c.34 5.23 2.89.9 2.33.33m-1.39 9.72c-2.5-1.47-4.51 5.88-4.28 7.77.06.46.2.97.67.5.33-1.34.6-3.03 1.25-4.25.28-.53.82-.66 1.08-.42.2.19-1.81 4.39-1.33 5.33 1.67.06 1.46-3.13 1.98-3.53l1.68.19c-.69-1.3.43-2.66.35-3.49-.02-.17-1.3-2.05-1.41-2.12Zm-114.61 2.6c-.06-1.46-1.54-1.42-2.67-1.33-.22 2.65.82 2.06 2.67 1.33m5 1.34c.18 1.21-1.38 1.52-.85 2.66 1.08 2.33 3.11-2.58.85-2.66M211 170h-.66v1h.66zm-118.67 3.67c-.71 1.07-.57 1.42-2.29 1.72-.12.42-.05.86-.04 1.28v1c-.09.02-.23.25-.33.33-.77.28-1.14.71-.99-.33 1.3.11.33-.98.33-1.67 0-.57.91-1.73-.17-1.68-1.34.06-1.02.71-1.6 1.24-.22.2-.87.13-1.08.41-.57.79.51 2.38.13 3.47-.21.62-1.31.68-1.56 1.45-.66 2.1 1.2 3.13 2.93 3.44 0-.77.02-1.56 0-2.33l1-.33c.23.4.53.87 1 1-.29.98-1.39 1.98.17 2.34 1.41-.3 1.05-1.34 1.17-2.34.09-.78.26-1.32 0-2.33.13-.06.27-.32.33-.33.47-.07 1.16.17 1.52-.32l.15-1.35.67-.17v-.83H93c0-.66-.02-1.34 0-2 .01-.29 0-.53 0-.67.01-.33-.05-.7 0-1 0-.04.73-.36.16-.67-.5-.09-.62.35-.83.67m11-.34-5.89 1.62-1.44-.61-.33 2.66c1.55.17 1.44-2.41 2.66.16-.18.94-3.01-.38-3.01 2.34 0 2.33 2.44 1.92 4.1 2.52 1.88.68.98.22 2.74.32.75.04 1.39 1.08 2.02.33.69-.83-.84-.68-1.11-1.57-.37-1.21.26-3.08-.39-4.43.18-.18 2.73 1.1 2.67-.17-.07-1.49-.58-1.71-1.98-1.87l-.03-1.3Zm12.67 6c-.59-2.21-2.01-2.26.67-3.84-1.06-2.4-3.94 1.56-3.65 2.99zm2.62-1.28c-1.21-.35-1.35 1.01-2.12 1.64-.56.46-1.75.02-1.01 1.31l2.83-1-.05 1.62c-2.69.21-.18 2.76.64 1.14.67-1.32.58-3.5-.3-4.71Zm.74 6.25c3.64 1.76 3.35-1.23-.03-.96zm43.88 1.75c-1.37.37-1.54 3.67 1.06 2.09 2.01-1.22.3-2.46-1.06-2.09M117 189c1.44-3.28-3.04-1.91-1.99-.67.07.08 1.65.45 1.99.67m-9.34.66c.15-1.46-.01-2.23-1.66-2-.18 1.14.38 2.17 1.66 2m47.67-.99c-2.41.46-1.31 2.62-1 4.33 2.16-.43.94-2.87 1-4.33m58.84 2.33c-.72.14-.08 2.23-.48 2.79 2.92 2.43 1.73-3.04.48-2.79m5.16 1.67c-.32-.33-2.86 1.04-2.33 2 .37.39 3.02-1.27 2.33-2M120.67 200c-.52-.46-4.3 1.73-5 2.17.43 1.27 2.01 1.55 1.67 3.16.85.94 3.57-5.11 3.33-5.33m52.66 4c-2.85-.27-.61 1.63-1.96 2.89 1.84 2.59 2.14-1.28 1.96-2.89m-67.7 4.7c-.45-.39-3.72.71-2.81 1.97.52.84 2.48.61 3.18.15.79-.52-.5-1.45-.36-2.12Zm97.05.19-.14 1.07 3.12.42.14-1.07zM136.67 210c-1.05-.15-1.95-.58-2.95.05-.42 2.01.21 3.08 2.28 3.28-.78-1.75.63-1.85.67-3.33m-6.67 2.66c.28-1.38-3.44-1.54-3.66-1.33-.26 2.09 2.35 1.15 3.66 1.33m105.99 2.66c-.3.3-3.08-.77-2.98 1.83.33 1.74 4.89-1.94 5.18-2.48.37-.66-.74-1.58-1.35-1.67-.84.28-.76 2.23-.85 2.32m-26.66 1.01c4.59.86 2.49-4.05.33-1.84-.5.51-.32 1.22-.33 1.84m-8.33 1.01c-1.85.21-4.85-.3-4.66 2.33.33.31 3.33-1.24 3.95-1.56.47-.24.89.15.71-.77m-98.34 4.33c.55-1.16-2.65-2.69-3-2.33-.84.87 2.8 2.54 3 2.33m6.01 2.66c2.73 1.38 2.46-2.41.66-1.5-.53.27-.76.93-.66 1.5m85.99 1.34H193c-.21 1.46.97 2.17.34 3.66 2.29.06 1.38-2.19 1.33-3.66Zm-5.32 6.99c.29.31 2.49-.84 2.33-1.49-1.77-1.63-2.64-.75-2.33 1.49m15.66 2.67c1.26.37 2.3-1.54 1.35-2.18L205 233zm-12.16 1c-.86.22-.19 2.85.66 2.66 1.24-.27 1.09-2.92-.66-2.66" fill="#fed502"/>
        <path d="M255.67 147.33c.61 1.74 1.54 2.14 1.96 4.54.59 3.37.93 8.19 1.04 11.63.18 5.79-.47 11.03-1.33 16.66-.78 5.08-1.44 5.32-3.33 9.5-4.63 2.05-10.69.56-15.23-1.27-1.75-.71-8.34-4.17-9.25-5.42-4.89-6.68-7.05-14.8-3.78-22.73 4.12-10 19.86-15.62 29.92-12.91" fill="#fe827f"/>
        <path d="M97 101.67c.17.06 2.18 2.13 2.69 2.48 3.16 2.2 4.5 2.36 6.49 6.18 1.66 3.2 3.37 11.46 3.16 15.01-.02.41-.24 1.98-.33 2.33-.73 2.9-6.47 12.55-8.83 14.33-1.24.94-4.18 2.25-5.71 2.32-3.7.17-7.76.65-11.62.35-1.25-.1-6.06-.91-6.84-1.5-1.17-.89.12-.84-2-1.16-.11-.02-.41-.36-.67-.33.09-2.57.72-1.89 1.19-3.31.39-1.18.4-3.04.83-4.5 3.44-11.51 10.76-21.68 18.32-30.68.82-.97 1.91-2.03 3.32-1.51Z" fill="#fe837f"/>
        <path d="M95.58 236.08c2.09-.36 4.25-.25 5.58 1.6 1.54 2.14 1.15 3.44-.02 5.62-1.72 3.22-5.31 5.53-7.81 8.19-10.56 11.21-20.21 22.01-32.89 31.11-4.47 3.21-10.14 7.84-14.61 1.74-4.02-5.49 4.46-10.66 7.85-13.84 8.19-7.68 16.26-15.6 24.49-23.18 2.65-2.44 14.36-10.72 17.42-11.25Z" fill="#f69521"/>
        <path d="M168.58 255.75c5.27-1.37 6.92 7.5 7.38 11.13 1.5 11.84.46 24.09.03 35.94-.22 6.14.16 13.29-.68 19.32-.29 2.05-4.76 6.65-7 4.72-1.29-2.46-3.4-4.13-4.15-6.85-1.56-5.67-.4-12.28-.48-18.19-.18-13.01-1.18-23.4.7-36.61.38-2.7 1.01-8.63 4.2-9.46" fill="#f69521"/>
        <path d="M253.86 74.19c-3.49 3.87-13 13.57-18.06 14.12-2.33.25-2.61-.7-4-1.94-.27-.24-.97-.26-1.08-.42-.29-.45-.02-2.24.21-2.86.73-1.94 4.51-6.28 5.88-8.45 7.09-11.2 9.99-18.4 20.19-27.81 2.22-2.05 11.26-9.84 13.59-10.42.32-.08 3.68.04 3.99.17 1.9.78 1.63 5.12 1.43 6.93-.66 6-4.73 8.01-7.99 12.01-4.91 6-8.69 12.62-14.15 18.69Z" fill="#f69521"/>
        <path d="M235.75 231.75c.61-.58 4.13-.6 4.91-.25s3.94 4.05 5 5c2.8 2.5 5.75 4.51 8.14 7.52 3.32 4.19 8.19 10.83 11 15.33 2.25 3.6 3.69 7.62 5.8 11.2s7.2 8.71 5.83 13.06c-.31.97-2.8 2.76-3.76 2.92-.65.11-1.35-.18-1.92-.46-2.79-1.4-7.41-5.78-9.42-8.24-6.02-7.34-10.65-16.82-16.54-24.13-3.22-3.99-10.49-10.35-10.5-15.86 0-1.16.67-5.34 1.44-6.08Zm11.91 19.91c.36-.37-2.45-4.22-3-3.66-.07.7 2.41 4.27 3 3.66" fill="#f69521"/>
        <path d="M36.47 62.8c.14-.21 1.49-1.83 1.61-1.89.87-.43 2.28-.35 3.17.02 4.06 2.78 8.47 5.07 12.6 7.73 7.17 4.61 26.5 17.18 28.99 25.01.64 2 .73 5.22-.82 6.84-.91.95-4.89 2.83-6.25 1.9-9.19-6.69-18.88-13.44-27.58-20.75-3.58-3.01-8-7.24-10.44-11.22-1.52-2.48-3.01-4.96-1.27-7.64Z" fill="#f69521"/>
        <path d="M154.53 6.52c.12-.08.12-.45.38-.51 3-.69 5.88 3.46 6.6 5.99 2.25 7.84 1.34 15.14 1.48 23.18.13 7.37.57 14.93.69 22.31.06 3.69.08 8.67-3.56 10.8-5.5 3.22-7.92-4.48-8.76-8.47-.63-3-.16-5.67-.36-8.64-.18-2.67-.9-5.65-.93-8.34-.05-5.21 1.06-11.3 1.28-16.65.25-5.96-1.07-13.26 2.06-18.61.31-.52.65-.73 1.12-1.06" fill="#f69622"/>
        <path d="M119.11 297.22c-2.91-3.78-1.52-10.78-.63-15.23 1.6-7.93 6.27-18.27 11.67-24.33 6.48-7.26 10.36-2.78 9.85 5.52-.41 6.65-3.94 13.53-6.26 19.74-1.62 4.34-2.62 10.79-6.24 13.76-1.89 1.55-3.85 1.67-5.99 2.68-.27-.02-2.17-1.82-2.4-2.13ZM136.33 269l-1.37.19-.63 5.14c.95-.29 2.24-5.1 1.99-5.33Zm-9 .33c-.86-.17-.58.18-.83.65-1.39 2.58-2.09 5.46-2.5 8.35l1-.22 2.33-8.77Zm.7 9.16-.81 4.49 1.18.21.81-4.49z" fill="#fed566"/>
        <path d="M205.58 245.75c4.19-.72 5.74 1.52 6.66 5.19.67 2.68.91 5.66 1.6 8.4 1.87 7.42 5.17 14.83 6.81 22.19.5 2.22 1.24 6.83-.3 8.65-2.32 2.73-5.86 2.35-8.35 0-1.94-1.82-4.07-7.36-4.99-10.01-1.98-5.7-4.5-13.31-5.9-19.1-1.26-5.2-2.86-14.06 4.48-15.32Zm6.08 17.92c-.21-.83-.29-5.59-1.49-5.33-1.11.23-.24 5.38 1.49 5.33m-5 2c-.59-.02-.71-.17-.67.5.02.37.65 5.31 1.67 4.17zm6.67 9c.32-.59-1.04-6.1-2-5 .03 1.44.65 2.98 1.24 4.27.22.47-.2.91.75.73Z" fill="#fed566"/>
        <path d="M101.24 42.08c7.84-1.6 9.04 5.62 11.36 10.82 2.77 6.2 9.06 17.98 8.04 24.59-.75 4.84-8.77 6.09-11.98 2.36-1.96-2.27-6.6-14.02-7.89-17.45-1.58-4.22-3.86-10.12-3.45-14.57.19-2.1 1.65-5.28 3.92-5.74Zm5.59 13.59V56q.33-.165 0-.33m.83.67-.67.17c-.05.77 1.59 4.42 2.06 5.27.32.56.82 1.63 1.61 1.56-.02-2.67-1.99-4.7-3-7m4 22.66c.25-.27-2.25-5.47-3-4.66-.3.77 2.27 5.44 3 4.66" fill="#fed566"/>
        <path d="M42.19 223.19c5.48-5 22.27-15.68 29.62-14.51 4.62.74 5.02 6.3 2.49 9.45-7.21 4.08-13.85 9.17-21 13.33-3.93 2.29-9.86 5.91-14.29 2.68s.43-8.46 3.17-10.95Z" fill="#fed566"/>
        <path d="M27.93 119.76c5.76-.63 14.45 4.21 20.66 5.15 4.83.73 10.32-.09 14.93 1.41 7.34 2.39 5.46 11.72-2.35 11.95-5.93.17-26.09-4.89-32.16-7.1-4.05-1.48-6.02-3.38-7-7.67 1.12-2.09 3.6-3.47 5.92-3.73Z" fill="#fed566"/>
        <path d="M198.32 64.65c-2.7.44-4.46-.47-5.48-2.98-2.29-5.64-.15-17.44 1.67-23.33.84-2.74 3.34-9.13 5.72-10.61 3.27-2.04 6.76-.42 7.63 3.26 1.65 6.96-2.29 21.82-6.02 28.03-1.23 2.05-3.29 3.35-3.52 5.64Z" fill="#fed566"/>
        <path d="M261.26 198.09c6.31-.77 24 6.67 28.9 10.92 2.56 2.22 5.56 6.58 2.01 9.32-3.45 2.67-8.8.21-12.17-1.49-6.54-3.31-13.37-6.17-19.88-9.78-1.33-.74-4.04-2.43-4.38-3.96-.68-3.05 3.06-4.7 5.53-5Zm8.74 3.58-3.66-1c-.16.87.16.59.66.82.62.29 2.57 1.02 3 .18m10 10.34c-4.58-2.38-9.01-5.19-14-6.67-1 .94 4.93 3.02 5.29 3.21 1.98 1.04 6.57 4.39 8.54 4.13l.17-.66Z" fill="#fed567"/>
        <path d="M257.17 110.49c-5.94-7.21 10-9.63 14.09-10.4 5.7-1.06 9.74-1.58 15.53-1.46 1.02.02 2.67-.88 3.71.03.61 2.23.61 4.81-.84 6.84-3.08 4.31-16.04 7.26-21.24 8.09-4 .64-8.48.26-11.25-3.1m13.49-8.16c-2.21.58-4.83.74-6.93 1.58-.51.2-.9-.2-.73.75 2.23-.42 5.03-.4 7.01-1.5.46-.25.82.03.65-.83" fill="#fed567"/>
        <path d="M241 217.67c-.02-.3.11-.63-.07-.92-.32-.49-2.29-.62-1.93-1.25.29-.51 1.47-.35 1-1.84 3.43.92.69-2.11.73-2.77.03-.45.78-1.55.91-2.42s-.05-1.74.06-2.6c.17-1.37 1-2.41.3-3.87 2.26.05 2.59.86 2.33 3h-1.32c.08.74-.38 1.54-.37 2.18.03 1.09.91 1.2 1.04 1.99.1.64-.63.27-.71.97-.17 1.44.31 2.78.36 3.86.02.34.01.67-.17.98z" fill="#fee651"/>
        <path d="M213.33 237c.2.92-.48.63-.99.82-7.6 2.9-14.86 4.77-22.67 6.84-.2-.92.48-.62.99-.82 3.57-1.38 6.26-1.39 9.68-2.34 2.05-.57 3.85-1.94 5.99-2.18-1.2-2.29 1.78-2.88 1-.67.31.25 5.11-1.41 6-1.66Z" fill="#fee651"/>
        <path d="M138 245.33c4.8-.23 9.91.99 14.84 1.33 2.88.2 5.36-.11 8.33.35.62.1 1.35-.42 1.16.65-4.67-.13-9.51-.24-14.16-.67-3.38-.31-6.86-.93-10.17-1.66" fill="#fee651"/>
        <path d="M87.67 211.33c2.18.88 1.72-.63 2.48-1.35.57-.53 3.33-1.62 3.52-.48-1.03 1.41-.35 1.16-.07 2.06.44 1.42-2.58 1.68-1.93.09-1.69.26-1.4 2.13-1 3.33-.96-.31-2.86-2.83-3-3.67Z" fill="#fee651"/>
        <path d="M188.33 245c.17.8-.4.7-.88.94-1.25.64-4.64 1.73-5.96 1.73h-6.33c-2.53 0-4.45.2-6.83.33 1.2-.59 3.61-1.25 4.89-1.31.84-.04 1.38.31 1.61.31h7c1.5 0 4.85-1.55 6.5-2" fill="#fee651"/>
        <path d="M226.67 230.67c0 .82-1.69 1.5-2.33 1.84-3.1 1.68-6.64 3.47-10.01 4.49-.18-.86.42-.68.91-.91 2.99-1.35 8.86-4.79 11.42-5.43Z" fill="#fee651"/>
        <path d="m74 170.67.33 1.67c1.64-.17 3.19.2 4.68.85l-.35 1.48c-.16.11-3.04-1.11-3.59-1.26-.77-.22-.72.06-1.07.6-.16-1.63-.01-2.01 0-3.33Z" fill="#fee342"/>
        <path d="M117 237c.67-.1 1.25-.81 1.82-.67l.51 2c2.26-.31 1.34.33 1.73.91.29.42 1.52.05 1.27 1.09-1.57-.72-3.04-1.43-4.52-2.33-.44-.27-.97-.29-.82-1Z" fill="#fee651"/>
        <path d="M124.67 241.33c1.93.8 3.94 1.6 5.94 2.25.56.18 1.27-.24 1.06.75-1.81 0-4.52-1.21-6.12-2.06-.47-.25-1.06-.13-.88-.94" fill="#fee651"/>
        <path d="M76.67 188c.9-.19.64.46.83.99.62 1.78 1.25 3.56 1.84 5.34-.82.18-1.04-1.36-1.25-1.92-.53-1.45-1-2.93-1.42-4.41" fill="#fee342"/>
        <path d="M238.67 221c-1.43 1.83-1.4 1.9-3.33 3.33.48-1.29 2.02-2.84 3.33-3.33" fill="#fee651"/>
        <path d="M112.67 234.33c1.29.57 1.96.99 3.12 1.73.43.27 1.07.11.88.94-.89-.08-3.8-1.59-4-2.67" fill="#fee651"/>
        <path d="M105.67 229.67c-1.05-.62-2.91-1.3-3.33-2.67.9.61 3.09 1.21 3.33 2.67" fill="#fee651"/>
        <path d="M100.67 225.67c-1.02-.76-1.11-1.17-1.67-1.67l1.33-1.33z" fill="#fee651"/>
        <path d="M84 205c1.09.02 1.57 2.38 2 3.33-1.07-.02-1.59-2.38-2-3.33" fill="#fee651"/>
        <path d="M166.33 248s-.22.29-.48.28c-.76-.02-2.13-.28-2.85-.62.06 0 .29-.38 1.14-.35.65.02 1.67.25 2.19.68Z" fill="#fee651"/>
        <path d="M108.67 231.67c1.86.88 1.48.83 2.67 2-.99-.25-2.55-.91-2.67-2" fill="#fee651"/>
        <path d="M72.33 157.33H73c-.1.83.33 2.09-.33 2.67-.05-.7-.29-1.64-.33-2.67Z" fill="#fee342"/>
        <path d="M231 227.67c-.02 1.11-1.24 1.29-2 1.67.05-1 1.18-1.4 2-1.67" fill="#fee651"/>
        <path d="M134.67 244.67c-.51-.01-1.71.43-2.33-.33.34.01 1.56-.77 2.33.33" fill="#fee651"/>
        <path d="M72.67 148.33c.59.37.28 1.37.33 2h-.67c.05-.83.3-1.58.33-2Z" fill="#fee342"/>
        <path d="M74 174.67h.67c.33.7-.31 1.78-.33 2-.58-.58-.25-1.35-.33-2Z" fill="#fee342"/>
        <path d="M234 225.33c0 1.11-1.01 1.2-1.67 1.67.02-1.24 1.06-1.26 1.67-1.67" fill="#fee651"/>
        <path d="M108.33 231.67c-.66-.29-1.83-.44-1.67-1.33.6.33 1.71.15 1.67 1.33" fill="#fee651"/>
        <path d="M74.33 177.33H75c.33.61-.32 1.58-.33 1.67-.44-.48-.38-1.08-.33-1.67Z" fill="#fee342"/>
        <path d="M73.33 166.67H74c.33.62-.33 1.58-.33 1.67-.46-.49-.36-1.08-.33-1.67Z" fill="#fee342"/>
        <path d="M73 164h.67c.33.61-.32 1.57-.33 1.67-.52-.49-.27-1.11-.33-1.67Z" fill="#fee342"/>
        <path d="M86.67 209.67h1c.04.33-.04.68 0 1-.99.1-.77-.63-1-1" fill="#fee651"/>
        <path d="M73.33 143.33c0 .07.65.74.33 1.33h-.67c.06-.46-.12-.94.33-1.33Z" fill="#fee342"/>
        <path d="M245.33 211.33c-.26.61-.04 1.55-1 1.33.17-.68.13-1.54 1-1.33" fill="#fee651"/>
        <path d="M135.67 244.67c.44.01.89-.02 1.34 0v.67c-.45.01-.89 0-1.34 0z" fill="#fee651"/>
        <path d="M80.67 198c.86-.2.83.65 1 1.33-.89.2-.8-.66-1-1.33" fill="#fee342"/>
        <path d="M75 181.33c1.34-.16.38.66.33 1-.42-.16-.34-.63-.33-1" fill="#fee342"/>
        <path d="M73 163c-.03-.46 0-.94 0-1 .37.24.52.89 0 1" fill="#fee342"/>
        <path d="M74 142v.67h-.67c-.01-.33-.01-.67 0-1 .25-.03.56.32.67.33" fill="#fee342"/>
        <path d="M74.67 179.67c1.34-.15.38.65.33 1-.42-.16-.35-.64-.33-1" fill="#fee342"/>
        <path d="M240 219.33c-.55 1.11-.55.53-.67.67-.11-.63.03-.78.67-.67" fill="#fee651"/>
        <path d="M247.67 207.67c-.55 1.02-.64.61-.67.67-.1-.68-.02-.76.67-.67" fill="#fee651"/>
        <path d="M80 196.67h.67v.67c-.31-.28-.27.58-.67-.67" fill="#fee342"/>
        <path d="M241 218c-.19 1.24-.42.44-.67.67-.11-.64.03-.78.67-.67" fill="#fee651"/>
        <path d="M92 217c.64-.11.77.04.67.67-.04-.05-.15.01-.67-.67" fill="#fee651"/>
        <path d="M73 146.33s-.02-.28 0-.67l.28.21z" fill="#fee342"/>
        <path d="M227.67 230c-.29.49.51.47-.67.67V230z" fill="#fee651"/>
        <path d="M228.67 229.33c-.07.13.08.58 0 .67s-.5-.06-.67 0v-.67z" fill="#fee651"/>
        <path d="M76.33 186.67h.66l-.33.67c0-.04-.22-.2-.33-.67" fill="#fee342"/>
        <path d="M244.33 213c-.04.17.1.47-.05.62-.19.14-.48 0-.62.05V213z" fill="#fee651"/>
        <path d="M73.67 169.33h.66L74 170c0-.04-.36-.09-.33-.67" fill="#fee342"/>
        <path d="M249.67 203.67c-.13.43.34.82-.67.67.14-.41-.35-.82.67-.67" fill="#fee651"/>
        <path d="M75.33 183h.66l-.33.67c0-.04-.28-.09-.33-.67" fill="#fee342"/>
        <path d="M246 210.33c-.6 1.05-.18.27-.67.67v-.67z" fill="#fee651"/>
        <path d="M81.67 200c.68-.1.76-.02.67.67-.31-.24-.46.55-.67-.67" fill="#fee342"/>
        <path d="M232 227c-.26.3.57.38-.67.67V227z" fill="#fee651"/>
        <path d="M112 234.33c-.16-.06-.23-.24-.33-.33z" fill="#fee651"/>
        <path d="M83.33 203.33s-.24-.12-.33-.33z" fill="#fee651"/>
        <path d="M290.67 161.33v1c-2.43-.39-4.92-.49-7.28-1.24-.56-.18-.88.14-.73-.76l8 1Z" fill="#fddb7e"/>
        <path d="M189.33 157.67c-.57 8.88-7.19 15.57-16.16 16.01-2.79.14-5.09-1.1-7.68-1.34-1.98-.19-4.34.28-6.25-.08-.55-.1-4.84-1.53-5.23-1.77-1.52-.91-2.37-3.28-3.22-4.78-1.16-2.07-2.56-5.36-2.79-7.87-.16-1.79.1-9.95.41-11.59.2-1.06 1.61-4.2 2.42-4.92 1.21-1.07 4.6-2.52 6.18-2.18.64.14 3.75 1.59 4.29 2.05 3.7 3.2 1.84 8.43 2.04 12.63.05 1.03.34 4.54 1.01 4.99 1.87 1.25 3.35-.04 4.9-.4 2.56-.59 4.61-.41 6.28-3.06 2.13 1.09 4.17 2.79 6.68 2.96 1.14.08 6.76-1.01 7.12-.65" fill="#fdda00"/>
        <path d="M208.67 172.33c-3.45 5.84-7.4 15.53-12.66 19.84-8.84 7.24-36.7 10.59-47.26 7.25-9.15-2.9-19.25-12.99-24.35-20.83-.16-.24-1.06-4.74-1.24-5.57-.6-2.75-.67-4.02-.8-6.52-.18-3.45-1.34-6.35-.26-9.9.76-2.51 3.16-2.55 3.56-.42.74 3.92-.37 10.26.05 14.62 1.07 11.24 17.21 25.54 28.22 26.78 7.56.85 20.63-.56 28.08-2.41 8.21-2.04 15.9-6.1 19.62-14.05.85-1.81 3.13-9.29 4.39-9.95.44-.23.86-.16 1.32-.16h1c.01.11-.02.23 0 .33.07.31.12.78.33 1Z" fill="#120f00"/>
        <path d="M138.92 118.74c6.58-1.04 9.02 9.65 2.52 12.19-9.35 3.64-9.55-11.07-2.52-12.19" fill="#090800"/>
        <path d="M209.26 133.42c8.22-1.03 8.56 10.89.88 11.89-8.77 1.14-8.1-10.98-.88-11.89" fill="#090800"/>
        <path d="m103.33 173.33.03 1.3c1.4.16 1.91.38 1.98 1.87.06 1.27-2.49-.01-2.67.17.65 1.36.03 3.22.39 4.43.27.89 1.8.74 1.11 1.57-.63.75-1.26-.29-2.02-.33-1.76-.1-.86.36-2.74-.32-1.66-.6-4.1-.19-4.1-2.52 0-2.72 2.83-1.4 3.01-2.34-1.22-2.58-1.12 0-2.66-.16l.33-2.66 1.44.61 5.89-1.62Z" fill="#fee855"/>
        <path d="M87.67 182c.02.77-.01 1.56 0 2.33-1.74-.31-3.59-1.33-2.93-3.44.24-.78 1.34-.83 1.56-1.45.37-1.08-.71-2.67-.13-3.47.2-.28.85-.21 1.08-.41.58-.53.26-1.18 1.6-1.24 1.08-.05.17 1.11.17 1.68-2.21.78-.28 2.65-1 4h2.67c.07.12.31.25.33.34.26 1.02.09 1.55 0 2.33-.4-.07-.99.1-1.33 0-.47-.13-.77-.6-1-1-.25-.43.13-1.5-1.32-.13-.06.21.32.42.32.46Z" fill="#fee855"/>
        <path d="M200.28 166.06c.11.06 1.39 1.95 1.41 2.12.08.82-1.04 2.19-.35 3.49l-1.68-.19c-.52.4-.32 3.59-1.98 3.53-.48-.94 1.53-5.14 1.33-5.33-.26-.25-.8-.11-1.08.42-.66 1.22-.92 2.9-1.25 4.25-.47.47-.61-.04-.67-.5-.23-1.89 1.78-9.24 4.28-7.77Z" fill="#fee651"/>
        <path d="M93 173.67c-.05.3.01.67 0 1l-.33.5.33.17c-.02.66 0 1.34 0 2v1l-.15 1.35c-.36.49-1.05.25-1.52.32-.13-.31-.51-.24-.67-.33-.7-.43-1.07-.76-1-1.67.11-.09.24-.32.33-.33.6-.1 1.37.08 2 0-.23-.81-1.34-.6-2-1 0-.43-.08-.86.04-1.28 1.72-.3 1.58-.65 2.29-1.72h.67Z" fill="#fee651"/>
        <path d="M120.67 200c.24.22-2.48 6.27-3.33 5.33.34-1.61-1.24-1.89-1.67-3.16.7-.44 4.48-2.63 5-2.17" fill="#fee651"/>
        <path d="M137.2 112.69c.74-.12.92.8.75 1.41-.56 1.93-6.4.78-6.61.06-.69-2.29 3.43-.42 4.13-.5.87-.09 1.43-.93 1.73-.97" fill="#fee549"/>
        <path d="M216 110.67c1.06 3.16-6.41 2.02-6.66 1.16-.68-2.35 3.31-.5 3.83-.46 1.12.08 1.77-.77 2.83-.7" fill="#fee549"/>
        <path d="M118.62 178.05c.88 1.21.97 3.39.3 4.71-.82 1.62-3.34-.93-.64-1.14l.05-1.62-2.83 1c-.74-1.29.45-.85 1.01-1.31.77-.63.91-1.99 2.12-1.64Z" fill="#fee342"/>
        <path d="M235.99 215.32c.09-.09.02-2.04.85-2.32.6.1 1.71 1.01 1.35 1.67-.3.54-4.85 4.22-5.18 2.48-.09-2.6 2.68-1.53 2.98-1.83" fill="#fee651"/>
        <path d="m116 179.33-2.98-.85c-.29-1.43 2.59-5.38 3.65-2.99-2.67 1.58-1.26 1.62-.67 3.84" fill="#fee549"/>
        <path d="M208.33 171.33c2.5-.39 1.64.43 2.07.91.17.19.77.12 1.09.42.92.88 1.39 3.85-.86 2.86-.5-.35-.17-1.56-.47-2.19-.28-.59-1.24-.72-1.5-1-.21-.22-.27-.69-.33-1" fill="#fee23a"/>
        <path d="M136.67 210c-.03 1.48-1.45 1.58-.67 3.33-2.07-.2-2.71-1.27-2.28-3.28 1-.63 1.9-.2 2.95-.05" fill="#fee651"/>
        <path d="M105.63 208.7c-.14.67 1.16 1.6.36 2.12-.7.46-2.66.69-3.18-.15-.9-1.27 2.36-2.37 2.81-1.97Z" fill="#fee549"/>
        <path d="M155.33 188.67c-.06 1.46 1.17 3.9-1 4.33-.31-1.71-1.42-3.87 1-4.33" fill="#fee549"/>
        <path d="M201 217.34c.18.92-.24.54-.71.77-.63.31-3.62 1.86-3.95 1.56-.19-2.63 2.81-2.11 4.66-2.33" fill="#fee23a"/>
        <path d="M163.24 186.05c1.37-.37 3.07.86 1.06 2.09-2.6 1.58-2.43-1.71-1.06-2.09" fill="#fee549"/>
        <path d="M209.33 216.33c.01-.62-.17-1.33.33-1.84 2.17-2.21 4.26 2.7-.33 1.84" fill="#fee549"/>
        <path d="M173.33 204c.18 1.6-.12 5.48-1.96 2.89 1.34-1.26-.9-3.16 1.96-2.89" fill="#fee23a"/>
        <path d="M89 176c0 .69.97 1.78-.33 1.67-.15 1.04.22.61.99.33-.07.91.3 1.24 1 1.67v.33h-2.67c.72-1.35-1.21-3.22 1-4Z" fill="#fedc22"/>
        <path d="M194.66 225.67c.06 1.47.96 3.72-1.33 3.66.63-1.49-.55-2.2-.34-3.66h1.66Z" fill="#fee342"/>
        <path d="M199.64 152.99c-.47.33-3.89-1.06-3.31-2.32 1.34.28 1.86.85 3.33.49.66.43.09 1.27-.02 1.83" fill="#fee23a"/>
        <path d="M168.67 120c.19-2.79 1.66-.5 2.2-.41.76.14 3.99-.73 1.02 1.36-1.08-.69-1.86-1.2-3.22-.96Z" fill="#fedc22"/>
        <path d="M214.17 191c1.26-.25 2.44 5.21-.48 2.79.4-.55-.25-2.65.48-2.79" fill="#fee549"/>
        <path d="M90.67 170c2.26.09.23 4.99-.85 2.66-.53-1.14 1.03-1.45.85-2.66" fill="#fee342"/>
        <path d="M201.67 156.34c.56.56-1.99 4.9-2.33-.33z" fill="#fee23a"/>
        <path d="M85.67 168.66c-1.85.73-2.88 1.33-2.67-1.33 1.12-.09 2.61-.13 2.67 1.33" fill="#fee549"/>
        <path d="M130 212.66c-1.31-.18-3.92.76-3.66-1.33.22-.21 3.95-.05 3.66 1.33" fill="#fee23a"/>
        <path d="M109 127.67c.09-.36.31-1.92.33-2.33 2.67-.31 1.99 2.68-.33 2.33" fill="#fee651"/>
        <path d="M189.34 232.66c-.31-2.25.56-3.12 2.33-1.49.16.66-2.04 1.8-2.33 1.49" fill="#fee342"/>
        <path d="M232 132v1c-.68.06-1.49-.15-2.13.05-.28.09-.9 1.62-1.54.95-1-1.05 2.98-2.71 3.67-2" fill="#fee23a"/>
        <path d="M192.84 236.33c1.75-.26 1.9 2.4.66 2.66-.84.18-1.51-2.44-.66-2.66" fill="#fee342"/>
        <path d="M227.33 133.33H224c-.48-1.85 3.22-1.78 3.33 0" fill="#fedc22"/>
        <path d="m185 140.67-1.16 2.66c-1.52-1.18-.95-3.22 1.16-2.66" fill="#fee23a"/>
        <path d="M91 182.67c-.11 1 .24 2.04-1.17 2.34-1.56-.36-.46-1.36-.17-2.34.34.1.93-.07 1.33 0Z" fill="#fee342"/>
        <path d="M102.66 221.67c-.19.2-3.83-1.46-3-2.33.34-.36 3.55 1.17 3 2.33" fill="#fee23a"/>
        <path fill="#fee549" d="M154.12 107.54a1.07 1.07 0 1 1-2.14 0 1.07 1.07 0 0 1 2.14 0"/>
        <path d="M117 189c-.35-.22-1.93-.59-1.99-.67-1.05-1.24 3.44-2.61 1.99.67" fill="#fee342"/>
        <path d="M205 235.33V233l1.35.15c.95.64-.08 2.55-1.35 2.18" fill="#fee342"/>
        <path d="M152.67 82c-.53-.46 2.26-2.55 2.66-1.16.43 1.49-1.89 1.19-2.66 1.16" fill="#fee23a"/>
        <path d="M108.67 224.33c-.1-.57.13-1.23.66-1.5 1.8-.91 2.07 2.88-.66 1.5" fill="#fee342"/>
        <path d="M152 120.66c-.5-1.2 2.07-2.83 2.33-1.49.15.74-1.63 1.69-2.33 1.49" fill="#fee23a"/>
        <path d="m119.36 184.3-.03-.96c3.38-.26 3.67 2.72.03.96" fill="#fee23a"/>
        <path d="M231.67 104.33v2c-1.3-.03-2.13-.26-1.52-1.69z" fill="#fee549"/>
        <path d="M107.66 189.66c-1.28.17-1.84-.86-1.66-2 1.65-.24 1.81.53 1.66 2" fill="#fee23a"/>
        <path fill="#fedc22" d="m202.674 208.886 3.121.425-.145 1.07-3.122-.425z"/>
        <path d="M219.33 192.67c.69.72-1.96 2.38-2.33 2-.53-.96 2.01-2.33 2.33-2" fill="#fedc22"/>
        <path d="M90 176.67c.66.4 1.77.19 2 1-.63.08-1.4-.1-2 0z" fill="#fedc22"/>
        <path d="M87.67 182s-.38-.25-.32-.46c1.45-1.37 1.07-.3 1.32.13z" fill="#fee342"/>
        <path d="m207.33 171 .17-.67h.83c.03.22-.02.45 0 .67z" fill="#fee23a"/>
        <path fill="#fee23a" d="M211 170v1h-.66v-1z"/>
        <path fill="#fedc22" d="M93 177.33h.67v.83l-.67.17z"/>
        <path d="M92.33 173.67c.21-.32.33-.76.83-.67.57.31-.16.63-.16.67z" fill="#fedc22"/>
        <path d="m93 175.33-.33-.17.33-.5c0 .14.01.37 0 .67" fill="#fedc22"/>
        <path d="M91.33 180c-.07.01-.21.27-.33.33-.02-.08-.26-.21-.33-.33v-.33c.16.1.53.03.67.33Z" fill="#fee342"/>
        <path d="M247.66 251.66c-.59.6-3.07-2.97-3-3.66.54-.55 3.36 3.29 3 3.66" fill="#fed566"/>
        <path d="M127.33 269.33 125 278.1l-1 .22c.4-2.89 1.11-5.77 2.5-8.35.25-.47-.03-.82.83-.65Z" fill="#fdeec6"/>
        <path d="M136.33 269c.25.23-1.04 5.04-1.99 5.33l.63-5.14 1.37-.19Z" fill="#fdeec6"/>
        <path fill="#fde5a3" d="m128.037 278.497 1.18.212-.806 4.488-1.18-.212z"/>
        <path d="M211.66 263.67c-1.73.05-2.6-5.1-1.49-5.33 1.21-.26 1.29 4.5 1.49 5.33" fill="#fef1cd"/>
        <path d="M213.33 274.67c-.95.18-.54-.26-.75-.73-.6-1.29-1.21-2.83-1.24-4.27.96-1.11 2.32 4.41 2 5Z" fill="#fde5a3"/>
        <path d="m206.66 265.67 1 4.67c-1.01 1.14-1.64-3.8-1.67-4.17-.04-.66.07-.52.67-.5" fill="#fddb7e"/>
        <path d="M107.66 56.34c1.01 2.3 2.99 4.32 3 7-.79.07-1.29-.99-1.61-1.56-.47-.84-2.11-4.5-2.06-5.27z" fill="#fdeec6"/>
        <path d="M111.66 79c-.73.78-3.3-3.89-3-4.66.75-.8 3.25 4.4 3 4.66" fill="#fde5a3"/>
        <path d="M106.83 55.67q.33.165 0 .33z" fill="#fdeec6"/>
        <path d="m280 212.01-.17.66c-1.97.27-6.56-3.09-8.54-4.13-.36-.19-6.29-2.27-5.29-3.21 4.99 1.48 9.42 4.29 14 6.67Z" fill="#fef1cd"/>
        <path d="M270 201.67c-.43.83-2.38.1-3-.18-.5-.23-.82.05-.66-.82z" fill="#fddb7e"/>
        <path d="M270.66 102.33c.17.87-.19.58-.65.83-1.99 1.1-4.78 1.08-7.01 1.5-.17-.94.23-.55.73-.75 2.1-.84 4.72-1 6.93-1.58" fill="#fde5a3"/>
    </g>
</svg>
